<svg width="40" height="58" viewBox="0 0 40 58" fill="none" xmlns="http://www.w3.org/2000/svg">
<g filter="url(#filter0_i_349_1042)">
<path d="M0 7.25C0 3.24594 3.22355 0 7.2 0H32.8C36.7765 0 40 3.24594 40 7.25L38.1224 54.895C38.0651 56.3488 36.524 57.2569 35.2245 56.6026L20.8994 49.3903C20.3336 49.1055 19.6664 49.1055 19.1006 49.3903L4.77547 56.6026C3.47595 57.2569 1.93493 56.3488 1.87764 54.895L0 7.25Z" fill="#304856"/>
</g>
<g filter="url(#filter1_d_349_1042)">
<path fill-rule="evenodd" clip-rule="evenodd" d="M20 38L27.682 30.5C29.4393 28.7843 29.4393 26.0025 27.682 24.2868C25.9246 22.5711 23.0754 22.5711 21.318 24.2868L20 25.5736V38Z" fill="#D7908C"/>
<path fill-rule="evenodd" clip-rule="evenodd" d="M20 38L12.318 30.5C10.5607 28.7843 10.5607 26.0025 12.318 24.2868C14.0754 22.5711 16.9246 22.5711 18.682 24.2868L20 25.5736V38Z" fill="#E49D99"/>
</g>
<defs>
<filter id="filter0_i_349_1042" x="0" y="0" width="40" height="60.8186" filterUnits="userSpaceOnUse" color-interpolation-filters="sRGB">
<feFlood flood-opacity="0" result="BackgroundImageFix"/>
<feBlend mode="normal" in="SourceGraphic" in2="BackgroundImageFix" result="shape"/>
<feColorMatrix in="SourceAlpha" type="matrix" values="0 0 0 0 0 0 0 0 0 0 0 0 0 0 0 0 0 0 127 0" result="hardAlpha"/>
<feOffset dy="4"/>
<feGaussianBlur stdDeviation="7.5"/>
<feComposite in2="hardAlpha" operator="arithmetic" k2="-1" k3="1"/>
<feColorMatrix type="matrix" values="0 0 0 0 0 0 0 0 0 0 0 0 0 0 0 0 0 0 0.25 0"/>
<feBlend mode="normal" in2="shape" result="effect1_innerShadow_349_1042"/>
</filter>
<filter id="filter1_d_349_1042" x="7" y="23" width="26" height="23" filterUnits="userSpaceOnUse" color-interpolation-filters="sRGB">
<feFlood flood-opacity="0" result="BackgroundImageFix"/>
<feColorMatrix in="SourceAlpha" type="matrix" values="0 0 0 0 0 0 0 0 0 0 0 0 0 0 0 0 0 0 127 0" result="hardAlpha"/>
<feOffset dy="4"/>
<feGaussianBlur stdDeviation="2"/>
<feComposite in2="hardAlpha" operator="out"/>
<feColorMatrix type="matrix" values="0 0 0 0 0 0 0 0 0 0 0 0 0 0 0 0 0 0 0.25 0"/>
<feBlend mode="normal" in2="BackgroundImageFix" result="effect1_dropShadow_349_1042"/>
<feBlend mode="normal" in="SourceGraphic" in2="effect1_dropShadow_349_1042" result="shape"/>
</filter>
</defs>
</svg>